<?xml version="1.0" encoding="UTF-8"?>
<svg id="Layer_2" data-name="Layer 2" xmlns="http://www.w3.org/2000/svg" viewBox="0 0 1094.14 163.76">
  <defs>
    <style>
      .cls-1 {
        stroke: #5e69ff;
        stroke-width: 6px;
      }

      .cls-1, .cls-2, .cls-3 {
        fill: none;
        stroke-miterlimit: 10;
      }

      .cls-2 {
        stroke: #00b6af;
        stroke-width: 4px;
      }

      .cls-3 {
        stroke: #18465e;
        stroke-width: 7px;
      }
    </style>
  </defs>
  <g id="Layer_1-2" data-name="Layer 1">
    <path class="cls-1" d="M7.03,159.43c3.34,0,6.47-.37,9.31-1.09,2.51-.64,4.83-1.55,7.11-2.8,4.21-2.3,7.62-5.84,10.93-8.84,6.55-5.96,13.33-12.11,26.34-12.11s19.79,6.16,26.34,12.11c3.3,3,6.72,6.11,10.93,8.4,2.28,1.24,4.61,2.16,7.11,2.8,2.84.72,5.97,1.09,9.3,1.09,4.14,0,8.01-1.17,11.53-3.48,3.11-2.04,5.99-4.96,8.81-8.94,5.21-7.34,9.44-17.26,13.54-26.86,8.12-19.04,16.51-38.72,32.63-38.72s24.51,19.68,32.63,38.72c4.09,9.6,8.32,19.52,13.54,26.86,2.82,3.97,5.71,6.9,8.81,8.94,3.39,2.23,7.13,3.39,11.1,3.47h.42c4.82-.14,9.34-2.47,13.45-6.95,3.74-4.08,7.21-9.93,10.6-17.87,6.27-14.67,11.37-34.52,16.29-53.72,9.77-38.07,19.87-77.44,39.27-77.44s29.5,39.37,39.27,77.44c4.93,19.2,10.02,39.05,16.29,53.72,3.4,7.95,6.22,14.45,9.96,18.52,4.23,4.61,8.9,6.95,13.87,6.95"/>
    <path class="cls-2" d="M7.03,159.9c3.34,0,6.47-.25,9.31-.73,2.51-.43,4.83-1.04,7.11-1.88,4.21-1.54,7.62-3.63,10.93-5.65,6.55-4,13.33-8.14,26.34-8.14s19.79,4.14,26.34,8.14c3.3,2.02,6.72,4.1,10.93,5.65,2.28.84,4.61,1.45,7.11,1.88,2.84.48,5.97.73,9.3.73,4.14,0,8.01-.79,11.53-2.34,3.11-1.37,5.99-3.33,8.81-6,5.21-4.93,9.44-11.6,13.54-18.05,8.12-12.79,16.51-26.02,32.63-26.02s24.51,13.23,32.63,26.02c4.09,6.45,8.32,13.12,13.54,18.05,2.82,2.67,5.71,4.63,8.81,6,3.39,1.5,7.13,2.28,11.1,2.33h.42c4.82-.1,9.34-1.66,13.45-4.67,3.74-2.74,7.21-6.67,10.6-12.01,6.27-9.86,11.37-23.2,16.29-36.09,9.77-25.58,19.87-52.03,39.27-52.03s29.5,26.45,39.27,52.03c4.93,12.9,10.02,26.24,16.29,36.09,3.4,5.34,6.87,9.27,10.6,12.01,4.23,3.1,8.9,4.67,13.87,4.67"/>
    <path class="cls-3" d="M0,159.9h7.6c2.22,0,5.22-.05,8.74-.37,1.39-.13,3.95-.36,7.11-.94,4.21-.77,7.62-1.81,10.93-2.82,6.55-2,13.33-4.07,26.34-4.07s19.79,2.07,26.34,4.07c3.3,1.01,6.72,2.05,10.93,2.82,2.28.42,4.61.72,7.11.94,2.84.24,5.97.37,9.3.37,4.14,0,8.01-.39,11.53-1.17,3.11-.69,5.99-1.67,8.81-3,5.21-2.46,9.44-5.8,13.54-9.02,8.12-6.39,16.51-13.01,32.63-13.01s24.51,6.61,32.63,13.01c4.09,3.22,8.32,6.56,13.54,9.02,2.82,1.33,5.71,2.32,8.81,3,3.39.75,7.13,1.14,11.1,1.17h.42c4.82-.05,9.34-.83,13.45-2.34,3.74-1.37,7.21-3.33,10.6-6,6.27-4.93,11.37-11.6,16.29-18.05,9.77-12.79,19.87-26.02,39.27-26.02s29.5,13.23,39.27,26.02c4.93,6.45,10.02,13.12,16.29,18.05,3.4,2.67,6.87,4.63,10.6,6,5.06,1.86,9.27,2.15,12.21,2.31,13.87.75,683.35.23,688.62.03"/>
  </g>
</svg>